<svg width="160" height="128" viewBox="0 0 160 128" fill="none" xmlns="http://www.w3.org/2000/svg">
<path d="M67.225 88.0238C69.6199 77.7455 78.815 66.099 80.9921 63.3994C91.3335 61.6214 104.057 62.8272 103.424 69.1561C102.791 75.485 104.677 80.2513 105.628 85.3232C106.579 90.3951 115.495 110.082 99.9775 115.135C99.3119 115.352 98.6429 115.544 97.972 115.711C82.4353 119.622 59.7128 113.16 50.9341 105.336C41.7694 97.1674 39.424 90.3674 38.4278 81.2028C37.4317 72.0381 38.4055 61.7857 41 55C43.5945 48.2143 53 47.5 53 59C53 70.5 48.5433 75.0527 49.3402 81.4281C50.1372 87.8035 52.1295 92.1866 55.118 95.3743C58.1064 98.562 61.5684 101.262 65.0456 102.559C65.0456 102.559 64.83 98.3021 67.225 88.0238Z" fill="#0B121C"/>
<path d="M115.398 52.1393C115.398 62.7741 107.817 71.3953 90.8271 71.3953C73.837 71.3953 66.2564 62.7741 66.2564 52.1393C66.2564 41.5045 75.1895 32.8832 90.8271 32.8832C106.465 32.8832 115.398 41.5045 115.398 52.1393Z" fill="#0B121C"/>
<path fill-rule="evenodd" clip-rule="evenodd" d="M91.9773 54.5491C90.7262 53.9141 89.7059 53.3792 89.0218 53.0042L95.6021 46.8456C97.8164 47.9372 99.8272 48.9592 101.65 49.9166C116.883 44.8362 119.751 46.7351 119.106 49.8443C118.973 50.4885 117.4 51.275 115.689 52.2917C122.336 53.9417 122.931 55.8699 121.535 57.7369C121.034 58.4068 118.729 58.7606 115.834 58.9083C118.59 61.5359 118.279 62.8339 116.678 63.8082C115.233 64.6872 107.924 62.0397 101.195 58.9799C97.229 60.5737 93.6829 61.8815 91.9773 62.453V57.8662L91.822 57.8481L91.9773 57.5157V54.5491Z" fill="#0B121C"/>
<path fill-rule="evenodd" clip-rule="evenodd" d="M83.0736 50.5401L80.9827 48.5832C80.5128 48.8148 80.0523 49.0433 79.6012 49.2685C62.3174 44.365 60.6369 45.9631 60.2986 47.745C59.9603 49.527 61.9536 50.8101 64.4449 51.3979C56.0568 53.0835 56.4358 56.1818 57.162 56.9749C57.8049 57.677 60.226 58.2088 63.8129 58.2964C58.6422 62.0849 58.3174 64.0137 60.2122 65.1666C61.9349 66.2149 72.6487 61.7518 80.0702 58.1834C82.3643 59.0639 84.2725 59.7555 85.3782 60.126L85.3782 57.2161L85.3782 55.5481C86.1766 55.1369 86.8394 54.7863 87.3258 54.5197L85.3782 52.697L85.3782 51.4146C84.5871 51.1107 83.8191 50.8193 83.0736 50.5401Z" fill="#0B121C"/>
<path d="M78.4727 11.0086C82.2295 10.4966 86.8207 32.8928 90.6929 32.8929L73.4727 38.0087C74.1611 28.9866 74.7158 11.5207 78.4727 11.0086Z" fill="#0B121C"/>
<path d="M104.473 11.0084C100.552 10.5233 95.3366 33.0917 92.7364 32.9594L109.473 39.0084C108.784 29.9864 108.394 11.4935 104.473 11.0084Z" fill="#0B121C"/>
<path d="M83 58C84 60 87 60 88 60C89 60 92 59.5 93 59" stroke="white" stroke-opacity="0.2" stroke-width="2" stroke-linecap="round"/>
<path d="M99 59C100 59.5 103 60 104 60C105 60 108 60 109 58" stroke="white" stroke-opacity="0.2" stroke-width="2" stroke-linecap="round"/>
</svg>
