<svg width="64" height="64" viewBox="0 0 64 64" fill="none" xmlns="http://www.w3.org/2000/svg">
<g clip-path="url(#clip0_231_216)">
<path d="M58.9251 43.1308C58.9251 53.7657 51.3445 62.3869 34.3544 62.3869C17.3644 62.3869 9.78375 53.7657 9.78375 43.1308C9.78375 32.496 18.7168 23.8748 34.3544 23.8748C49.9921 23.8748 58.9251 32.496 58.9251 43.1308Z" fill="#0B131D"/>
<path d="M-1.61102 68.5364C5.60985 68.2461 16.9627 56.6158 19.1398 53.9161C29.4813 52.1381 48.2957 56.6618 45.5045 60.7887C42.694 64.9441 45.1568 70.8176 44.6125 75.3896L6.009 83.4498L-1.61102 68.5364Z" fill="#0B131D"/>
<path fill-rule="evenodd" clip-rule="evenodd" d="M35.5046 45.5406C34.2535 44.9057 33.2332 44.3707 32.5491 43.9957L39.1294 37.8372C41.3437 38.9287 43.3545 39.9507 45.1777 40.9081C60.4105 35.8277 63.2779 37.7266 62.6334 40.8358C62.4999 41.48 60.927 42.2665 59.2167 43.2832C65.8633 44.9332 66.458 46.8614 65.062 48.7284C64.561 49.3983 62.2561 49.7522 59.3611 49.8998C62.1169 52.5274 61.806 53.8254 60.2049 54.7997C58.7602 55.6788 51.4512 53.0312 44.7222 49.9714C40.7564 51.5652 37.2102 52.8731 35.5046 53.4445V48.8577L35.3493 48.8396L35.5046 48.5073V45.5406Z" fill="#0B131D"/>
<path fill-rule="evenodd" clip-rule="evenodd" d="M26.6009 41.5316L24.51 39.5747C24.0401 39.8064 23.5796 40.0348 23.1285 40.2601C5.84475 35.3566 4.16422 36.9547 3.82589 38.7366C3.48756 40.5185 5.48091 41.8017 7.97218 42.3895C-0.415895 44.0751 -0.0368785 47.1734 0.689339 47.9665C1.33222 48.6686 3.7533 49.2003 7.34024 49.288C2.16946 53.0764 1.84474 55.0053 3.73945 56.1582C5.46225 57.2065 16.176 52.7434 23.5975 49.175C25.8915 50.0555 27.7998 50.7471 28.9055 51.1175L28.9055 48.2076L28.9055 46.5397C29.7039 46.1284 30.3667 45.7779 30.8531 45.5113L28.9055 43.6885L28.9055 42.4061C28.1144 42.1023 27.3464 41.8109 26.6009 41.5316Z" fill="#0B131D"/>
<path d="M19.8802 4.02121C23.637 3.50916 30.3481 23.8844 34.2202 23.8844L17 29.0002C17.6884 19.9782 16.1233 4.53326 19.8802 4.02121Z" fill="#0B131D"/>
<path d="M50.6188 4.02121C46.6976 3.53615 38.8639 24.0833 36.2637 23.951L53 30.0001C52.3116 20.978 54.5399 4.50628 50.6188 4.02121Z" fill="#0B131D"/>
<path d="M26 49C27 51 30 51 31 51C32 51 35 50.5 36 50" stroke="white" stroke-opacity="0.2" stroke-width="2" stroke-linecap="round"/>
<path d="M42 50C43 50.5 46 51 47 51C48 51 51 51 52 49" stroke="white" stroke-opacity="0.2" stroke-width="2" stroke-linecap="round"/>
</g>
<defs>
<clipPath id="clip0_231_216">
<rect width="64" height="64" fill="white"/>
</clipPath>
</defs>
</svg>
