<svg width="160" height="256" viewBox="0 0 160 256" fill="none" xmlns="http://www.w3.org/2000/svg">
<g clip-path="url(#clip0_301_571)">
<path d="M69.4027 103.785L68.7794 70.5447L106.902 70.0253C107.248 80.5514 108.149 101.936 108.98 103.266C109.811 104.595 82.9412 104.166 69.4027 103.785Z" fill="#8C4F6C"/>
<path d="M82.5242 82.3091C71.3784 82.6589 68.6522 87.4772 68.1802 91.263C67.7083 95.0487 75.1875 97.0667 86.7256 97.3351C101.148 97.6705 108.758 95.3876 105.964 89.7994C103.17 84.2113 93.6701 81.9592 82.5242 82.3091Z" fill="#353041"/>
<path d="M89.3844 86.3043C93.0362 86.5028 100.303 88.5936 100.398 90.8948C100.493 93.1959 100.483 95.2988 89.3051 94.6002C75.333 93.727 79.9375 94.4811 78.3101 90.7897C76.6826 87.0982 85.7326 86.1058 89.3844 86.3043Z" fill="#23222D"/>
<path d="M74.2227 93.3153C71.6874 93.6062 69.9092 94.4908 65.3375 98.3144C64.7773 98.7091 63.9076 100.042 64.9107 102.215C66.1645 104.932 81.5371 107.563 88.6422 107.667C95.7472 107.772 102.417 104.256 105.238 103.107C108.059 101.958 108.26 99.6025 107.513 97.943C106.766 96.2834 110.621 95.8125 107.516 94.3831C103.822 92.6826 97.5053 92.0555 96.8415 90.5619C96.3104 89.367 95.0159 88.6257 94.4351 88.4044L83.8649 88.2448C83.3523 88.4942 82.1277 89.342 81.3297 90.7385C80.3322 92.4841 76.7579 93.0244 74.2227 93.3153Z" fill="#C67C93"/>
<path d="M74.2227 93.3153C71.6874 93.6062 69.9092 94.4908 65.3375 98.3144C64.7773 98.7091 63.9076 100.042 64.9107 102.215C66.1645 104.932 81.5371 107.563 88.6422 107.667C95.7472 107.772 102.417 104.256 105.238 103.107C108.059 101.958 108.26 99.6025 107.513 97.943C106.766 96.2834 110.621 95.8125 107.516 94.3831C103.822 92.6826 97.5053 92.0555 96.8415 90.5619C96.3104 89.367 95.0159 88.6257 94.4351 88.4044L83.8649 88.2448C83.3523 88.4942 82.1277 89.342 81.3297 90.7385C80.3322 92.4841 76.7579 93.0244 74.2227 93.3153Z" fill="url(#paint0_radial_301_571)"/>
<path d="M82.2887 82.9107L95.8624 82.9107C95.8844 83.3059 95.9053 84.2782 95.9266 84.6321C96.3415 85.9058 98.1507 88.4382 99.2044 89.4522C98.4712 89.5612 97.1594 89.575 96.5599 89.0275C96.8078 90.0709 97.4341 90.7046 98.1604 91.535C97.1605 91.7507 96.4581 91.3718 95.7894 90.7331C95.9874 91.5583 95.7314 91.7651 96.5896 93.2174C95.0844 92.9797 92.8303 91.8695 92.3341 90.7848C92.4414 92.0463 92.1034 93.9759 91.3022 94.8662C89.6551 93.9759 88.5103 92.0983 88.1671 90.7749C87.6653 92.0392 85.1562 93.1518 84.012 93.6385C84.364 92.9344 84.3208 91.561 84.0532 90.6862C83.2804 91.3994 81.8129 91.6456 80.3181 91.7858C81.2523 90.509 81.3769 90.0107 81.7154 88.2778C81.4347 88.454 79.7314 88.8338 79.3663 88.8276C79.9672 88.0515 81.6967 85.6437 82.2231 84.0416C82.2508 83.6392 82.2727 83.2584 82.2887 82.9107Z" fill="#D89FB0"/>
<path d="M95.2156 252.271C94.9404 250.728 93.0993 214.7 92.8388 211.191C92.5783 207.682 96.2583 202.911 99.54 202.911C104.009 202.911 106.282 206.657 106.143 209.587C106.011 212.346 101.602 250.394 101.396 252.304C101.189 254.215 100.294 254.995 98.5743 255.069C96.8543 255.142 95.4908 253.815 95.2156 252.271Z" fill="#FFC8D9"/>
<mask id="mask0_301_571" style="mask-type:alpha" maskUnits="userSpaceOnUse" x="92" y="202" width="15" height="54">
<path d="M95.2156 252.271C94.9404 250.728 93.0993 214.7 92.8388 211.191C92.5783 207.682 96.2583 202.911 99.54 202.911C104.009 202.911 106.282 206.657 106.143 209.587C106.011 212.346 101.602 250.394 101.396 252.304C101.189 254.215 100.294 254.995 98.5743 255.069C96.8543 255.142 95.4908 253.815 95.2156 252.271Z" fill="#FFC8D9"/>
</mask>
<g mask="url(#mask0_301_571)">
<path d="M95.529 228.525C94.3292 228.001 93.9948 227.46 93.5478 226.385C92.5175 236.687 90.4254 257.482 90.2986 258.243C90.1718 259.004 101.975 259.141 107.892 259.115L105.277 225.672C104.427 226.865 103.987 227.773 102.687 228.59C102.369 225.536 101.903 223.718 101.041 221.324C100.185 223.708 99.8465 225.099 99.0159 227.495C98.1699 224.968 97.9218 223.37 97.1301 221.247C96.1471 223.776 95.7833 225.609 95.529 228.525Z" fill="#FFEBF2"/>
<path d="M95.0168 249.794C96.2303 250.89 98.4404 245.656 101.762 245.633L105.106 245.58L105.896 255.184L93.2313 255.801L95.0168 249.794Z" fill="#D8B2C9"/>
</g>
<path fill-rule="evenodd" clip-rule="evenodd" d="M96.1474 253.071C96.9269 250.125 99.7074 246.071 102.07 246.071C105.781 246.071 118.219 256.071 111.405 256.071L99.5126 256.071C99.5116 256.071 99.5106 256.071 99.5096 256.071H97.2161H92.5096C91.6812 256.071 91.0096 255.399 91.0096 254.571C91.0096 253.742 91.6812 253.071 92.5096 253.071H96.1474Z" fill="#5E5D70"/>
<mask id="mask1_301_571" style="mask-type:alpha" maskUnits="userSpaceOnUse" x="91" y="246" width="23" height="11">
<path fill-rule="evenodd" clip-rule="evenodd" d="M96.1474 253.071C96.9269 250.125 99.7074 246.071 102.07 246.071C105.781 246.071 118.219 256.071 111.405 256.071L99.5126 256.071C99.5116 256.071 99.5106 256.071 99.5096 256.071H97.2161H92.5096C91.6812 256.071 91.0096 255.399 91.0096 254.571C91.0096 253.742 91.6812 253.071 92.5096 253.071H96.1474Z" fill="#5E5D70"/>
</mask>
<g mask="url(#mask1_301_571)">
<path d="M107.725 255.251C110.453 251.822 101.89 247.617 102.104 246.075C102.317 244.532 119.398 253.319 119.398 253.319C116.368 255.992 105.359 258.225 107.725 255.251Z" fill="#434255"/>
</g>
<path d="M92.8068 210.942C92.3054 206.17 90.0885 182.342 89.5912 172.34C89.0939 162.337 95.1146 157.692 100.265 157.889C105.416 158.086 109.457 160.659 109.46 164.579C109.463 168.499 106.277 205.861 106.146 209.558C106.015 213.256 103.74 217.419 99.937 217.5C96.1344 217.582 93.3082 215.713 92.8068 210.942Z" fill="#FFC8D9"/>
<mask id="mask2_301_571" style="mask-type:alpha" maskUnits="userSpaceOnUse" x="89" y="157" width="21" height="61">
<path d="M92.8068 210.942C92.3054 206.17 90.0885 182.342 89.5912 172.34C89.0939 162.337 95.1146 157.692 100.265 157.889C105.416 158.086 109.457 160.659 109.46 164.579C109.463 168.499 106.277 205.861 106.146 209.558C106.015 213.256 103.74 217.419 99.937 217.5C96.1344 217.582 93.3082 215.713 92.8068 210.942Z" fill="#FFC8D9"/>
</mask>
<g mask="url(#mask2_301_571)">
<path d="M88.4347 200.115C82.4195 203.175 93.1917 187.823 99.0811 191.435C104.971 195.047 110.384 195.565 110.511 196.517C110.638 197.47 110.928 220.333 108.643 211.844C106.359 203.356 94.4499 197.056 88.4347 200.115Z" fill="#C67C93"/>
</g>
<path d="M71.3719 210.196C71.6725 214.357 74.6238 247.924 74.8804 250.625C75.1369 253.326 76.3139 255.056 77.9836 255.056C79.6533 255.056 81.2938 253.874 81.4405 251.173C81.4405 251.173 83.2841 217.526 83.9787 211.148C84.6734 204.77 81.0139 202.895 77.799 203.103C74.5842 203.31 71.0714 206.036 71.3719 210.196Z" fill="#FFC8D9"/>
<mask id="mask3_301_571" style="mask-type:alpha" maskUnits="userSpaceOnUse" x="71" y="203" width="14" height="53">
<path d="M71.3719 210.196C71.6725 214.357 74.6238 247.924 74.8804 250.625C75.1369 253.326 76.3139 255.056 77.9836 255.056C79.6533 255.056 81.2938 253.874 81.4405 251.173C81.4405 251.173 83.2841 217.526 83.9787 211.148C84.6734 204.77 81.0139 202.895 77.799 203.103C74.5842 203.31 71.0714 206.036 71.3719 210.196Z" fill="#FFC8D9"/>
</mask>
<g mask="url(#mask3_301_571)">
<path d="M72.5087 225.721L73.0122 231.385L67.8301 256.541L86.5328 257.65L82.9561 231.763L83.1995 225.511C82.7614 226.715 82.474 227.584 81.3719 228.431C80.6617 225.621 80.2029 223.913 79.4946 222.008C78.6601 223.924 78.2776 225.103 77.8583 227.546C77.1798 225.331 76.7944 224.153 75.8443 222.259C74.9577 224.371 74.9485 226.066 74.6485 228.616C73.2593 228.159 72.7541 227.119 72.5087 225.721Z" fill="#FFEBF2"/>
<path d="M74.8451 249.918C76.0586 251.015 78.2687 245.78 81.5899 245.757L84.9347 245.704L85.7247 255.308L73.0596 255.925L74.8451 249.918Z" fill="#D8B2C9"/>
</g>
<path fill-rule="evenodd" clip-rule="evenodd" d="M76.1474 253.071C76.9269 250.125 79.7074 246.071 82.0701 246.071C85.7807 246.071 98.2191 256.071 91.4048 256.071L79.5126 256.071C79.5116 256.071 79.5106 256.071 79.5096 256.071H77.2161H72.5096C71.6812 256.071 71.0096 255.399 71.0096 254.571C71.0096 253.742 71.6812 253.071 72.5096 253.071H76.1474Z" fill="#5E5D70"/>
<mask id="mask4_301_571" style="mask-type:alpha" maskUnits="userSpaceOnUse" x="71" y="246" width="23" height="11">
<path fill-rule="evenodd" clip-rule="evenodd" d="M76.1474 253.071C76.9269 250.125 79.7074 246.071 82.0701 246.071C85.7807 246.071 98.2191 256.071 91.4048 256.071L79.5126 256.071C79.5116 256.071 79.5106 256.071 79.5096 256.071H77.2161H72.5096C71.6812 256.071 71.0096 255.399 71.0096 254.571C71.0096 253.742 71.6812 253.071 72.5096 253.071H76.1474Z" fill="#5E5D70"/>
</mask>
<g mask="url(#mask4_301_571)">
<path d="M87.3519 255.221C90.0806 251.791 81.5176 247.587 81.7308 246.045C81.944 244.502 99.0255 253.289 99.0255 253.289C95.9955 255.961 84.9857 258.195 87.3519 255.221Z" fill="#434255"/>
</g>
<path d="M71.3913 210.408C71.0384 205.885 68.3231 172.144 68.4275 166.794C68.5318 161.444 75.9661 157.247 80.7665 157.693C85.567 158.138 90.008 163.966 88.6763 171.018C87.3447 178.069 84.5644 207.259 83.9978 210.995C83.4312 214.73 80.1195 218.31 76.5719 217.673C73.0243 217.035 71.7443 214.932 71.3913 210.408Z" fill="#FFC8D9"/>
<mask id="mask5_301_571" style="mask-type:alpha" maskUnits="userSpaceOnUse" x="68" y="157" width="21" height="61">
<path d="M71.3913 210.408C71.0384 205.885 68.3231 172.144 68.4275 166.794C68.5318 161.444 75.9661 157.247 80.7665 157.693C85.567 158.138 90.008 163.966 88.6763 171.018C87.3447 178.069 84.5644 207.259 83.9978 210.995C83.4312 214.73 80.1195 218.31 76.5719 217.673C73.0243 217.035 71.7443 214.932 71.3913 210.408Z" fill="#FFC8D9"/>
</mask>
<g mask="url(#mask5_301_571)">
<path d="M68.1775 200.215C62.1623 203.275 72.9345 187.922 78.8239 191.534C84.7134 195.146 90.127 195.665 90.2539 196.617C90.3809 197.569 90.6704 220.432 88.3859 211.944C86.1015 203.456 74.1927 197.156 68.1775 200.215Z" fill="#C67C93"/>
</g>
<mask id="mask6_301_571" style="mask-type:alpha" maskUnits="userSpaceOnUse" x="26" y="111" width="65" height="59">
<path d="M60.2378 130.65C74.1613 129.384 85.7191 142.049 90.1192 169.45C81.2266 158.907 68.4733 163.904 64.0351 164.351C59.5968 164.799 52.9595 166.092 41.2511 160.238C35.7514 157.488 30.898 153.006 28.2137 146.046C27.4788 144.141 26.9064 142.05 26.528 139.758C25.346 132.598 26.0552 123.478 29.608 111.932C32.7071 124.796 46.3142 131.916 60.2378 130.65Z" fill="#ED95BF"/>
<path d="M34.063 114.992C34.2135 117.34 34.9072 122.163 38.9737 125.442C38.2158 125.48 33.2572 122.59 32.9844 120.65C32.7115 118.71 32.7952 116.552 34.063 114.992Z" fill="white"/>
</mask>
<g mask="url(#mask6_301_571)">
<path d="M60.2378 130.65C74.1613 129.384 85.7191 142.049 90.1192 169.45C81.2266 158.907 68.4733 163.904 64.0351 164.351C59.5968 164.799 52.9595 166.092 41.2511 160.238C29.5426 154.383 20.763 140.678 29.608 111.932C32.7071 124.796 46.3142 131.916 60.2378 130.65Z" fill="#ED95BF"/>
<path d="M74.5287 182.014C71.431 182.449 57.1986 174.425 53.0738 165.494C57.1783 168.147 70.9254 167.239 71.3836 156.672L74.5287 182.014Z" fill="#BF6495"/>
<path d="M40.0081 141.183C40.016 143.376 41.2467 145.329 44.4167 147.865C42.3563 148.345 36.523 148.496 34.1103 144.832C33.7048 146.591 34.5384 148.218 35.8597 149.83C33.4592 149.923 32.2075 148.971 31.2614 147.181C30.6053 148.295 30.7054 148.896 31.1644 150.044C29.4499 150.025 28.4994 148.716 26.7847 147.757L23.9048 159.166L18.5162 121.546L29.6925 104.582L44.6996 126.015C44.5191 127.144 43.6982 129.319 45.4937 130.198C44.8247 130.721 43.7983 130.796 43.1121 130.436C42.7571 132.04 44.5808 133.611 46.4344 134.528C45.0571 135.278 43.6678 135.159 41.7575 134.236C41.8816 136.588 46.5654 140.081 49.0048 140.833C46.486 142.622 42.6755 143.296 40.0081 141.183Z" fill="#FFEBF2"/>
</g>
<path d="M66.074 192.701C65.6701 189.966 67.6138 171.451 68.6616 166.752C83.258 165.794 108.006 164.631 109.184 166.356C110.656 168.511 112.457 192.785 111.949 194.343C110.71 198.141 91.3435 197.813 89.728 194.634C88.9922 193.186 89.0113 188.58 88.8886 186.904C88.766 188.614 88.3447 193.546 87.6293 194.638C85.0252 198.612 66.8427 197.908 66.074 192.701Z" fill="#403F4D"/>
<mask id="mask7_301_571" style="mask-type:alpha" maskUnits="userSpaceOnUse" x="66" y="165" width="47" height="33">
<path d="M66.074 192.701C65.6701 189.966 67.6138 171.451 68.6616 166.752C83.258 165.794 108.006 164.631 109.184 166.356C110.656 168.511 112.457 192.785 111.949 194.343C110.71 198.141 91.3435 197.813 89.728 194.634C88.9922 193.186 89.0113 188.58 88.8886 186.904C88.766 188.614 88.3447 193.546 87.6293 194.638C85.0252 198.612 66.8427 197.908 66.074 192.701Z" fill="#403F4D"/>
</mask>
<g mask="url(#mask7_301_571)">
<path d="M109.276 168.494C112.362 163.863 116.388 188.117 115.945 191.943L128.4 164.709C130.355 167.491 131.457 178.222 132.381 180.952C133.535 184.366 129.014 204.181 126.224 203.992C123.993 203.84 100.803 204.413 102.259 198.493C103.715 192.573 105.915 173.539 109.276 168.494Z" fill="#363443"/>
<path d="M79.3831 197.173C79.7449 195.252 81.1409 191.445 82.7819 188.604C84.5645 185.517 88.1049 181.87 88.5901 183.491C89.0716 185.099 88.9374 191.365 88.8073 197.435L88.8043 197.579C88.6733 203.694 79.5057 198.909 79.5057 198.909C79.4877 197.468 79.4345 197.118 79.3831 197.173C79.3519 197.339 79.3283 197.491 79.313 197.627C79.2166 198.482 79.2973 197.264 79.3831 197.173Z" fill="#363443"/>
</g>
<mask id="mask8_301_571" style="mask-type:alpha" maskUnits="userSpaceOnUse" x="53" y="91" width="72" height="83">
<path d="M58.8257 106.545C61.3089 97.528 65.1025 95.5301 68.0643 95.5503C71.026 95.5705 74.6636 97.7177 75.3411 107.377C76.0186 117.036 69.208 138.961 66.7317 144.057C64.2554 149.153 61.4031 150.987 58.6907 150.562C55.9783 150.137 52.7216 146.975 53.6826 142.352C54.6437 137.728 56.3425 115.562 58.8257 106.545Z" fill="#2D2D38"/>
<path d="M116.658 106.011C113.606 97.1707 109.693 95.4182 106.738 95.6268C103.784 95.8355 100.29 98.2098 100.229 107.893C100.167 117.575 108.359 139.023 111.155 143.951C113.951 148.878 116.914 150.527 119.594 149.93C122.273 149.333 125.322 145.971 124.069 141.418C122.816 136.865 119.71 114.852 116.658 106.011Z" fill="#2D2D38"/>
<path d="M91.5693 100.03C85.271 97.8649 80.5792 94.3469 79.1832 92.2861C77.7872 90.2253 62.9579 93.1863 63.1775 100.704C63.397 108.221 64.8618 108.516 66.8833 118.211C68.0846 123.972 68.6031 128.96 68.6941 132.961C68.7561 135.689 68.3918 138.785 67.8712 141.983C67.1737 146.268 66.1956 150.735 65.5853 154.747C64.8298 159.713 64.6377 163.981 66.2386 166.341C70.2273 172.219 75.6336 172.556 80.5463 172.862L80.7454 172.875C85.7108 173.185 91.8411 173.446 97.411 173.101C102.981 172.756 107.182 172.265 110.927 166.761C112.952 163.785 112.25 159.25 111.409 155.063C111.029 153.17 110.62 151.348 110.422 149.773C109.996 146.383 109.862 143.599 109.896 140.694C109.913 139.266 109.97 137.807 110.053 136.233C110.304 131.458 110.963 126.68 112.213 118.318C113.464 109.955 114.17 109.385 113.97 104.595C113.771 99.8055 112.673 97.3108 111.475 94.8161C110.278 92.3213 104.257 90.0242 100.58 91.5516C100.241 91.6364 99.9744 91.8099 99.8016 92.0912C97.9988 95.026 95.9906 97.3632 91.5693 100.03Z" fill="#2D2D38"/>
<path d="M97.2394 155.929C96.5162 158.182 94.8119 158.216 91.9863 158.732C89.1607 159.249 82.0037 158.174 74.2909 156.101C66.7615 154.078 63.5733 152.668 58.4183 151.477C53.2632 150.287 52.6702 144.765 53.9684 141.852C55.2665 138.939 59.1432 136.169 62.4154 137.593C65.6876 139.016 91.398 148.781 93.0593 149.642C94.7207 150.502 97.9626 153.676 97.2394 155.929Z" fill="#2D2D38"/>
<path d="M80.8229 156.409C81.6167 158.637 83.3212 158.618 86.1617 159.045C89.0022 159.472 96.1217 158.173 103.765 155.858C111.227 153.599 114.37 152.089 119.485 150.737C124.6 149.385 125.018 143.847 123.629 140.976C122.24 138.106 118.278 135.459 115.052 136.985C111.826 138.511 86.4363 149.081 84.8029 149.993C83.1695 150.905 80.0292 154.18 80.8229 156.409Z" fill="#2D2D38"/>
</mask>
<g mask="url(#mask8_301_571)">
<rect x="35.7619" y="85.9386" width="103.712" height="94.2219" fill="#2D2D38"/>
<path d="M116.658 106.011C113.606 97.1707 109.693 95.4182 106.738 95.6268C103.784 95.8355 100.29 98.2098 100.229 107.893C100.167 117.575 108.359 139.023 111.155 143.951C113.951 148.878 116.914 150.527 119.594 149.93C122.273 149.333 125.322 145.971 124.069 141.418C122.816 136.865 119.71 114.852 116.658 106.011Z" fill="#2D2D38"/>
<path d="M91.5693 100.03C85.271 97.8649 80.5792 94.3469 79.1832 92.2861C77.7872 90.2253 62.9579 93.1863 63.1775 100.704C63.397 108.221 64.8618 108.516 66.8833 118.211C68.0846 123.972 68.6031 128.96 68.6941 132.961C68.7561 135.689 68.3918 138.785 67.8712 141.983C67.1737 146.268 66.1956 150.735 65.5853 154.747C64.8298 159.713 64.6377 163.981 66.2386 166.341C70.2273 172.219 75.6336 172.556 80.5463 172.862L80.7454 172.875C85.7108 173.185 91.8411 173.446 97.411 173.101C102.981 172.756 107.182 172.265 110.927 166.761C112.952 163.785 112.25 159.25 111.409 155.063C111.029 153.17 110.62 151.348 110.422 149.773C109.996 146.383 109.862 143.599 109.896 140.694C109.913 139.266 109.97 137.807 110.053 136.233C110.304 131.458 110.963 126.68 112.213 118.318C113.464 109.955 114.17 109.385 113.97 104.595C113.771 99.8055 112.673 97.3108 111.475 94.8161C110.278 92.3213 104.257 90.0242 100.58 91.5516C100.241 91.6364 99.9744 91.8099 99.8016 92.0912C97.9988 95.026 95.9906 97.3632 91.5693 100.03Z" fill="#2D2D38"/>
<path d="M58.8257 106.545C61.3089 97.528 65.1025 95.5301 68.0643 95.5503C71.026 95.5705 74.6636 97.7177 75.3411 107.377C76.0186 117.036 69.208 138.961 66.7317 144.057C64.2554 149.153 61.4031 150.987 58.6907 150.562C55.9783 150.137 52.7216 146.975 53.6826 142.352C54.6437 137.728 56.3425 115.562 58.8257 106.545Z" fill="#2D2D38"/>
<path d="M73.1554 154.086C72.9978 157.017 75.3158 159.963 75.4947 160.321L78.1997 143.103C76.1822 148.083 73.313 151.154 73.1554 154.086Z" fill="#23222D"/>
<path d="M96.2011 151.536C97.4964 146.601 103.818 136.206 105.739 132.323C107.66 128.44 108.765 124.099 108.459 120.206C108.153 116.313 106.102 111.049 107.639 110.961C108.48 110.913 110.347 114.48 110.977 118.067C111.606 121.654 111.052 126.815 111.277 128.484C111.776 132.177 115.618 167.806 115.242 169.739C114.819 171.921 95.8592 176.817 82.2372 174.946C69.066 173.137 61.1801 164.61 62.8781 163.67C64.6191 162.706 68.7657 168.46 80.1416 169.159C91.5176 169.857 92.7934 166.514 94.0614 164.215C95.3294 161.917 94.9058 156.47 96.2011 151.536Z" fill="#23222D"/>
<path d="M92.6179 130.027C90.9215 129.928 85.1596 142.613 86.9558 144.01C88.752 145.407 91.8223 145.389 92.8202 143.693C93.8181 141.997 94.3143 130.127 92.6179 130.027Z" fill="#23222D"/>
<path d="M92.8442 160.446C94.432 160.764 100.306 162.62 100.861 163.374L104.354 162.898L104.632 159.127C101.43 159.405 91.5741 160.192 92.8442 160.446Z" fill="#23222D"/>
<path d="M97.2394 155.929C96.5162 158.182 94.8119 158.216 91.9863 158.732C89.1607 159.249 82.0037 158.174 74.2909 156.101C66.7615 154.078 63.5733 152.668 58.4183 151.477C53.2632 150.287 52.6702 144.765 53.9684 141.852C55.2665 138.939 59.1432 136.169 62.4154 137.593C65.6876 139.016 91.398 148.781 93.0593 149.642C94.7207 150.502 97.9626 153.676 97.2394 155.929Z" fill="#2D2D38"/>
<mask id="mask9_301_571" style="mask-type:alpha" maskUnits="userSpaceOnUse" x="53" y="137" width="45" height="22">
<path d="M97.2394 155.929C96.5162 158.182 94.8119 158.216 91.9863 158.732C89.1607 159.249 82.0037 158.174 74.2909 156.101C66.7615 154.078 63.5733 152.668 58.4183 151.477C53.2632 150.287 52.6702 144.765 53.9684 141.852C55.2665 138.939 59.1432 136.169 62.4154 137.593C65.6876 139.016 91.398 148.781 93.0593 149.642C94.7207 150.502 97.9626 153.676 97.2394 155.929Z" fill="#2D2D38"/>
</mask>
<g mask="url(#mask9_301_571)">
<path d="M95.3188 159.388C100.094 159.639 101.315 157.277 98.8022 154.889C96.9255 153.106 69.065 148.802 64.6601 149.079C60.2552 149.357 58.1617 149.634 55.4866 151.094C52.8115 152.555 51.4406 154.16 54.8583 155.869C59.1306 158.005 90.544 159.136 95.3188 159.388Z" fill="#23222D"/>
</g>
<path d="M105.24 154.299C105.09 150.2 101.787 144.649 100.641 143.852L103.581 160.61C104.184 159.873 105.36 157.577 105.24 154.299Z" fill="#23222D"/>
<path d="M80.8229 156.409C81.6167 158.637 83.3212 158.618 86.1617 159.045C89.0022 159.472 96.1217 158.173 103.765 155.858C111.227 153.599 114.37 152.089 119.485 150.737C124.6 149.385 125.018 143.847 123.629 140.976C122.24 138.106 118.278 135.459 115.052 136.985C111.826 138.511 86.4363 149.081 84.8029 149.993C83.1695 150.905 80.0292 154.18 80.8229 156.409Z" fill="#2D2D38"/>
<path d="M113.776 146.615C108.088 151.605 91.1865 150.39 96.5754 157.126C101.964 163.862 126.298 154.913 129.314 152.4C133.083 149.258 124.29 120.741 123.659 116.086C123.028 111.43 120.819 106.842 118.587 111.489C116.355 116.136 116.927 119.451 117.62 127.57C118.312 135.689 119.464 141.626 113.776 146.615Z" fill="#23222D"/>
<path d="M87.3383 84.5232C101.726 85.8371 117.333 88.4631 112.901 96.6401C110.722 100.66 112.221 107.53 110.072 104.945C107.922 102.36 105.967 101.983 101.841 102.811C97.7146 103.639 95.9007 105.888 90.943 106.062C85.9853 106.236 84.184 101.646 78.4164 102.637C72.6488 103.629 69.8226 108.679 67.512 111.109C65.2013 113.539 65.5881 109.483 65.5881 101.596C65.5881 93.7093 72.9508 83.2093 87.3383 84.5232Z" fill="#23222D"/>
<path d="M65.2711 139.309C63.9819 138.608 70.0241 119.205 74.1451 116.59C74.5856 120.492 69.8397 135.329 68.3877 137.658C67.5151 139.057 66.5602 140.011 65.2711 139.309Z" fill="#23222D"/>
</g>
<path d="M77.9538 89.9175C79.5849 94.9884 88.1944 98.8811 91.607 99.8492C94.3973 98.6028 98.4722 94.7025 100.035 91.2393C101.988 86.9103 107.381 88.7568 106.378 91.6604L106.37 91.6839C105.387 94.394 103.326 100.074 89.6457 100.074C75.9256 100.074 69.5449 94.2789 69.6131 91.8077C69.6948 88.8457 76.3227 84.8467 77.9538 89.9175Z" fill="#484253"/>
<path d="M105.947 55.5304C106.592 68.1084 106.146 109.705 104.192 116.583C102.238 123.46 111.943 116.771 112.881 108.955C113.819 101.14 111.864 72.3449 111.562 55.6136L105.947 55.5304Z" fill="#ED95BF"/>
<path fill-rule="evenodd" clip-rule="evenodd" d="M110.605 70.4844C109.634 71.447 107.891 72.2013 106.686 72.6732L106.693 72.6251C107.69 71.9141 109.565 69.4329 109.455 66.8358C108.814 67.7877 107.897 68.9907 106.952 69.5215C107.24 62.7244 106.22 53.0946 105.778 50.2159C105.245 46.7336 100.759 40.9327 87.1001 40.9327C73.9668 40.9327 71.8267 47.592 70.5081 51.6952L70.5081 51.6953C70.4554 51.8594 70.4039 52.0194 70.3532 52.1748C69.1348 55.9035 68.6026 61.721 68.9063 70.2828C68.8525 70.2468 68.7988 70.211 68.7451 70.1752C68.7959 70.318 68.854 70.4693 68.9189 70.6277C68.9417 71.2317 68.9686 71.8492 68.9997 72.4804C69.1275 75.0781 70.476 77.3718 72.4919 79.3398C73.1104 79.9468 73.7638 80.4922 74.3565 80.9358C80.1834 85.3525 89.1473 87.728 92.8112 87.728C93.6702 87.728 94.5658 87.5343 95.4703 87.1837C101.042 85.3126 107.306 78.4796 108.086 76.6657C106.99 77.1232 106.29 77.0436 105.569 76.8545C108.158 75.4836 110.336 72.5296 110.605 70.4844Z" fill="url(#paint1_radial_301_571)"/>
<path d="M86.4845 63.3597C83.9441 68.5675 76.9148 64.3172 73.6599 64.7009L70.8885 65.38L73.1114 51.8446L105.191 54.1276C105.879 58.904 107.147 58.1077 106.953 63.7568C105.195 62.4617 97.59 66.6767 97.2725 64.573C94.7918 64.5228 97.2388 64.2765 92.442 64.9037C89.5047 62.6808 87.9928 67.0512 86.4845 63.3597Z" fill="#BF6495"/>
<path d="M89.6406 64.5859C88.6126 63.0654 79.0895 62.1222 77.2047 64.0651C75.3199 66.008 77.9273 68.841 79.6036 70.0627C81.5741 71.4987 84.2727 72.689 86.9287 72.7734C89.5846 72.8579 90.6686 66.1064 89.6406 64.5859Z" fill="white"/>
<ellipse cx="84.9409" cy="67.5286" rx="4" ry="4.77438" fill="#428571"/>
<ellipse cx="85.4409" cy="67.7542" rx="2" ry="2.5" fill="#1E322C"/>
<path d="M84.9144 61.3684C87.2405 61.6467 90.6081 63.022 89.9169 64.0074C89.2257 64.9928 86.3802 63.4989 83.2856 63.2936C80.191 63.0884 77.5305 63.4654 76.555 65.3303C74.8108 64.8364 71.9338 63.2529 74.38 62.2694C77.4377 61.04 82.5883 61.09 84.9144 61.3684Z" fill="#693764"/>
<path d="M96.9382 64.8704C97.9351 63.3514 104.986 62.2922 105.587 63.7979C106.187 65.3037 106.366 67.5248 105.757 69.035C105.147 70.5451 101.662 73.3994 99.0705 72.7484C96.4784 72.0973 95.9413 66.3893 96.9382 64.8704Z" fill="white"/>
<ellipse cx="3.37509" cy="4.77438" rx="3.37509" ry="4.77438" transform="matrix(-1 5.19489e-09 5.19489e-09 1 103.68 62.7939)" fill="#428571"/>
<ellipse cx="1.68755" cy="2.5" rx="1.68755" ry="2.5" transform="matrix(-1 5.19489e-09 5.19489e-09 1 101.943 65.2939)" fill="#1E322C"/>
<path d="M100.302 61.629C98.551 62.063 96.3734 63.2827 96.8503 64.268C97.3272 65.2534 99.4872 63.5121 101.588 63.2092C103.688 62.9064 105.38 62.8791 106.017 64.7734C107.221 64.2795 109.895 62.6622 108.208 61.6787C106.098 60.4493 102.053 61.1951 100.302 61.629Z" fill="#693764"/>
<path d="M95.0251 75.1465C95.0251 74.4752 94.8193 74.0887 93.0351 74.0988C91.2509 74.109 91.0157 74.3938 91.0254 75.1464C91.0352 75.8989 92.035 77.1087 93.0447 77.0986C94.0544 77.0884 95.0251 75.8179 95.0251 75.1465Z" fill="#693764"/>
<path d="M89.5102 80.5664C90.041 80.9437 91.29 81.5821 93.021 81.5821C94.7521 81.5821 95.8551 80.9887 96.5069 80.5915" stroke="#8D6076" stroke-linecap="round"/>
<path fill-rule="evenodd" clip-rule="evenodd" d="M86.9553 55.7081C88.1139 58.4635 89.7689 64.7416 88 69C97.206 68.3561 100.94 55.75 100.94 55.75C100.94 55.75 105.996 64.3647 111.953 66.2247C111.788 64.04 111.739 61.7917 111.694 59.7225C111.635 56.9723 111.582 54.5386 111.272 52.9911C110.73 50.2793 107.072 38.5218 88.9412 38.7542C70.8109 38.9866 65.2643 51.8785 64.3264 56.8918C63.7678 59.8773 63.9 63.8659 64.0644 68.8262C64.1761 72.1955 64.3026 76.0131 64.2376 80.2691C64.1974 82.901 64.1064 85.5265 64.0169 88.1064C63.7488 95.8411 63.4949 103.167 64.667 109.027C66.2301 116.843 76.3901 121.844 74.9833 115.905C74.0169 111.824 73.2713 94.1162 73.6551 80.3843C72.3378 79.2978 70.9135 77.8278 70.2778 76.3498C71.3742 76.8073 72.3473 77.0208 73.0687 76.8317C71.0892 74.9644 69.37 71.9305 68.7452 70.1752C68.9924 70.3398 69.24 70.5068 69.4865 70.6731C70.6973 71.49 71.8807 72.2885 72.8524 72.6763C70.6463 69.8877 70.9859 67.1566 71.0785 66.4818C71.2128 66.6736 71.3648 66.9167 71.5328 67.1853C72.1763 68.214 73.054 69.6172 74.0612 69.9445C74.1351 69.9686 74.2074 69.9985 74.2779 70.0336C74.4662 68.3143 74.6952 66.8582 74.9694 65.7538C81.5061 65.266 84.9891 59.9631 86.9553 55.7081Z" fill="#ED95BF"/>
<path fill-rule="evenodd" clip-rule="evenodd" d="M67.6765 48.9165C67.6188 49.3759 67.5661 49.7954 67.5178 50.1683L71.3815 49.133L82.0067 46.286L88.7682 44.4743C87.9516 42.9248 87.0378 41.0752 86.0772 39.1308C82.9801 32.8615 80.6115 27.8204 77.4839 25.109C77.0251 24.7113 76.55 24.3637 76.0539 24.0697C74.9076 23.3904 73.7841 24.6693 72.7474 26.9897C70.2766 32.5199 68.2983 43.9656 67.6765 48.9165Z" fill="#ED95BF"/>
<path d="M77.3838 32.0161C75.8506 32.4269 74.7191 39.9178 74.4192 46.4154C77.1681 44.766 81.1354 42.3263 83.7844 42.1763C80.8532 36.4895 78.9169 31.6054 77.3838 32.0161Z" fill="url(#paint2_linear_301_571)"/>
<path d="M74.7737 42.4344C74.9331 40.2555 75.2169 38.0349 77.1171 36.0954C79.3237 36.8835 80.4319 37.9346 82.1498 39.7143C82.8047 39.0459 82.7058 38.1016 82.5669 37.0466C84.1434 38.1457 85.1962 39.5168 85.5522 40.8108C85.9082 42.1047 86.6332 44.0173 86.3502 45.4064C86.0673 46.7955 83.6796 48.5185 81.9897 49.5049C79.185 51.142 76.0151 50.0408 74.8987 49.5813C72.7646 48.3489 70.5379 45.6458 72.6732 41.7772C73.1045 42.1748 73.8467 42.6072 74.7737 42.4344Z" fill="#FFEFF7"/>
<path d="M82.0704 38.9152C80.568 37.3833 79.4042 36.3813 77.2852 35.6246L76.9839 35.5169L76.7599 35.7455C74.8561 37.6886 74.4799 39.9002 74.308 41.9725C73.7621 41.9571 73.3123 41.6863 73.0121 41.4096L72.5435 40.9775L72.2354 41.5356C71.1007 43.5915 71.1027 45.3953 71.7246 46.8629C72.336 48.3059 73.5197 49.3624 74.6487 50.0143L74.6776 50.031L74.7084 50.0437C75.8339 50.507 79.2131 51.7045 82.2417 49.9367C83.1034 49.4337 84.1503 48.7391 85.0242 47.9853C85.4611 47.6084 85.8647 47.2081 86.1816 46.8014C86.4945 46.3998 86.7477 45.9604 86.8402 45.5062C87.0041 44.7013 86.8717 43.7881 86.6777 42.959C86.552 42.4218 86.3858 41.8676 86.2396 41.3799C86.1627 41.1236 86.0914 40.8856 86.0343 40.6781C85.6384 39.2391 84.4933 37.7802 82.8529 36.6365L81.9234 35.9884L82.0712 37.1119C82.1417 37.6474 82.1922 38.0934 82.158 38.4816C82.1438 38.6417 82.1158 38.7853 82.0704 38.9152Z" stroke="#ED95BF" stroke-opacity="0.5"/>
<path fill-rule="evenodd" clip-rule="evenodd" d="M87.8408 43.0704C87.5953 43.463 87.3711 43.8215 87.1706 44.1395L91.1116 44.8244L109.735 49.4227C109.616 47.8405 109.51 45.9792 109.398 43.9955C108.909 35.3842 109.233 27.9006 105.887 24.0477C102.542 20.1947 91.5962 37.0645 87.8408 43.0704Z" fill="#ED95BF"/>
<path d="M104.482 31.8082C103.004 31.5514 99.8583 36.2537 96.8138 41.8307C101.098 42.2462 102.595 44.8813 105.719 46.8096C105.561 40.6627 105.96 32.0651 104.482 31.8082Z" fill="#FFD2E0"/>
<path d="M97.5607 37.6978C93.77 39.394 93.6381 44.9238 98.5653 49.3917C103.377 54.1648 109.698 45.7665 107.16 41.3829C106.507 42.3768 105.835 42.6075 105.129 42.7935C105.995 40.8418 106.101 38.86 105.101 36.1547C102.465 35.5001 99.5703 37.9994 98.1477 39.8987C97.6982 39.1568 97.8384 39.2166 97.5607 37.6978Z" fill="#FFEFF7"/>
<path d="M105.99 41.909C106.511 40.1583 106.429 38.3072 105.57 35.9814L105.478 35.7333L105.221 35.6695C103.713 35.2949 102.185 35.8329 100.902 36.6467C99.8855 37.2908 98.9744 38.1368 98.2716 38.9494C98.2532 38.8542 98.2362 38.7406 98.2117 38.5768C98.2083 38.5536 98.2046 38.5293 98.2008 38.504C98.1675 38.2817 98.1233 37.9949 98.0525 37.6079L97.938 36.9812L97.3565 37.2414C95.2482 38.1848 94.1763 40.1999 94.2944 42.5307C94.4116 44.8437 95.6902 47.4564 98.2212 49.7547C99.524 51.043 100.973 51.4745 102.369 51.2649C103.744 51.0584 105.004 50.2406 105.989 49.1574C106.976 48.0716 107.72 46.6842 108.051 45.2687C108.382 43.855 108.309 42.3691 107.593 41.1323L107.187 40.4316L106.742 41.1082C106.482 41.5038 106.231 41.7462 105.99 41.909Z" stroke="#ED95BF" stroke-opacity="0.5"/>
<path d="M89.6375 40.2511C106.531 40.3011 110.097 52.9286 110.898 57.4097C93.1537 52.114 83.0305 52.7201 64.7806 57.7751C66.6811 54.1889 72.7437 40.2012 89.6375 40.2511Z" fill="#ED95BF"/>
<path d="M77.5061 141.375C76.695 145.07 75.2155 155.33 75.4627 160.329C84.9068 162.461 100.32 161.88 103.568 160.611C104.362 154.67 101.72 143.259 100.757 141.285C94.3054 140.555 83.5785 140.768 77.5061 141.375Z" fill="#2D2D38"/>
<mask id="mask10_301_571" style="mask-type:alpha" maskUnits="userSpaceOnUse" x="75" y="140" width="29" height="22">
<path d="M77.5061 141.375C76.695 145.07 75.2155 155.33 75.4627 160.329C84.9068 162.461 100.32 161.88 103.568 160.611C104.362 154.67 101.72 143.259 100.757 141.285C94.3054 140.555 83.5785 140.768 77.5061 141.375Z" fill="#2D2D38"/>
</mask>
<g mask="url(#mask10_301_571)">
<path d="M74.17 151.14L72.1095 161.759C84.0496 162.261 108.025 163.297 108.405 163.423C108.786 163.55 107.93 155.71 107.454 151.774C104.866 153.174 105.156 155.815 89.9404 155.895C74.7247 155.974 76.1512 152.91 74.17 151.14Z" fill="#23222D"/>
</g>
</g>
<defs>
<radialGradient id="paint0_radial_301_571" cx="0" cy="0" r="1" gradientUnits="userSpaceOnUse" gradientTransform="translate(91.4485 107.381) rotate(178.939) scale(11.2668 13.7168)">
<stop stop-color="#D89FB0"/>
<stop offset="0.765" stop-color="#D89FB0"/>
<stop offset="1" stop-color="#C67C93"/>
</radialGradient>
<radialGradient id="paint1_radial_301_571" cx="0" cy="0" r="1" gradientUnits="userSpaceOnUse" gradientTransform="translate(93.7836 87.8363) rotate(-87.9908) scale(14.1761 27.8376)">
<stop stop-color="#FFEBF1"/>
<stop offset="0.789035" stop-color="#FFEBF1"/>
<stop offset="1" stop-color="#FFC8D9"/>
</radialGradient>
<linearGradient id="paint2_linear_301_571" x1="76.296" y1="33.8117" x2="79.318" y2="45.1027" gradientUnits="userSpaceOnUse">
<stop offset="1" stop-color="#FFD2E0"/>
</linearGradient>
<clipPath id="clip0_301_571">
<rect width="160" height="256" fill="white"/>
</clipPath>
</defs>
</svg>
