<svg width="24" height="24" viewBox="0 0 24 24" fill="none" xmlns="http://www.w3.org/2000/svg">
    <path fill-rule="evenodd" clip-rule="evenodd" d="M18 18V16H20V18H22V20H20V22H18V20H16V18H18Z" fill="currentColor" />
    <path fill-rule="evenodd" clip-rule="evenodd" d="M4 4H8V6H6V8H4V4Z" fill="currentColor" />
    <path fill-rule="evenodd" clip-rule="evenodd" d="M18 6H16V4H20V8H18V6Z" fill="currentColor" />
    <path fill-rule="evenodd" clip-rule="evenodd" d="M4 16H6V18H8V20H4V16Z" fill="currentColor" />
    <path fill-rule="evenodd" clip-rule="evenodd" d="M14 6L10 6V4L14 4V6Z" fill="currentColor" />
    <path fill-rule="evenodd" clip-rule="evenodd" d="M4 14V10H6V14H4Z" fill="currentColor" />
    <path fill-rule="evenodd" clip-rule="evenodd" d="M14 20H10V18H14V20Z" fill="currentColor" />
    <path fill-rule="evenodd" clip-rule="evenodd" d="M18 14V10H20V14H18Z" fill="currentColor" />
</svg>
