<svg width="24" height="24" viewBox="0 0 24 24" fill="none" xmlns="http://www.w3.org/2000/svg">
    <path fill-rule="evenodd" clip-rule="evenodd"
        d="M4.76469 9.3788C4.11751 11.8531 3.95139 14.9468 3.93837 17.1997C3.93607 17.5979 4.26468 18 4.81836 18H5.55848L5.87471 17.0513C6.28305 15.8263 7.42947 15 8.72076 15H15.2792C16.5705 15 17.717 15.8263 18.1253 17.0513L18.4415 18H19.1816C19.7353 18 20.0639 17.5978 20.0616 17.1997C20.0486 14.9468 19.8825 11.8531 19.2353 9.3788C18.9094 8.13264 18.5025 7.21029 18.0604 6.63842C17.6618 6.12281 17.335 6 17 6H15.8901C15.7929 6.10179 15.6861 6.20981 15.5815 6.30722C15.5085 6.37519 15.3966 6.47582 15.2656 6.57159C15.2019 6.61812 15.0904 6.69566 14.9457 6.76963C14.8536 6.81671 14.4947 7 14 7H10C9.5053 7 9.14639 6.81671 9.05429 6.76963C8.90956 6.69566 8.79809 6.61812 8.73445 6.57159C8.60345 6.47582 8.49146 6.37519 8.4185 6.30722C8.31391 6.20981 8.20711 6.10179 8.10995 6H7C6.66496 6 6.33822 6.12281 5.93959 6.63842C5.49747 7.21029 5.09064 8.13264 4.76469 9.3788ZM15 4H17C21.3983 4 22.0351 12.5978 22.0616 17.1882C22.0708 18.7723 20.7658 20 19.1816 20H17L16.2279 17.6838C16.0918 17.2754 15.7097 17 15.2792 17H8.72076C8.29033 17 7.90819 17.2754 7.77208 17.6838L7 20H4.81836C3.23417 20 1.92925 18.7723 1.9384 17.1882C1.96494 12.5978 2.6017 4 7 4H9C9 4 9.85285 5 10 5H14C14.1472 5 15 4 15 4Z"
        fill="currentColor" />
    <circle cx="16" cy="9" r="1" fill="currentColor" />
    <circle cx="14" cy="11" r="1" fill="currentColor" />
    <circle cx="16" cy="13" r="1" fill="currentColor" />
    <circle cx="18" cy="11" r="1" fill="currentColor" />
    <path fill-rule="evenodd" clip-rule="evenodd" d="M9 8.5H7V10H5.5V12H7V13.5H9V12H10.5V10H9V8.5Z"
        fill="currentColor" />
</svg>
