<svg width="24" height="24" viewBox="0 0 24 24" fill="none" xmlns="http://www.w3.org/2000/svg">
    <path fill-rule="evenodd" clip-rule="evenodd"
        d="M9 7L18 5V5.5V8.20002V15.5C18 16.6046 16.8807 17.5 15.5 17.5C14.1193 17.5 13 16.6046 13 15.5C13 14.3954 14.1193 13.5 15.5 13.5C15.6712 13.5 15.8384 13.5138 16 13.54V8.64446L11 9.75558V17.5C11 18.6046 9.88071 19.5 8.5 19.5C7.11929 19.5 6 18.6046 6 17.5C6 16.3954 7.11929 15.5 8.5 15.5C8.67123 15.5 8.83844 15.5138 9 15.54V10.2V7.5V7Z"
        fill="currentColor" />
</svg>
